<?xml version="1.0" encoding="UTF-8" standalone="no"?>
<!-- This is a Stata 17.0 generated SVG file (http://www.stata.com) -->

<svg version="1.1" width="5.500in" height="4.000in" viewBox="0 0 3960 2880" xmlns="http://www.w3.org/2000/svg" xmlns:xlink="http://www.w3.org/1999/xlink">
	<desc>Stata Graph - Graph</desc>
	<rect x="0" y="0" width="3960" height="2880" style="fill:#EAF2F3;stroke:none"/>
	<rect x="0.00" y="0.00" width="3959.88" height="2880.00" style="fill:#EAF2F3"/>
	<rect x="2.88" y="2.88" width="3954.12" height="2874.24" style="fill:none;stroke:#EAF2F3;stroke-width:5.76"/>
	<rect x="390.80" y="100.86" width="3468.22" height="2388.33" style="fill:#FFFFFF"/>
	<rect x="393.68" y="103.74" width="3462.46" height="2382.57" style="fill:none;stroke:#FFFFFF;stroke-width:5.76"/>
	<line x1="390.80" y1="2489.19" x2="3859.02" y2="2489.19" style="stroke:#EAF2F3;stroke-width:8.64"/>
	<line x1="390.80" y1="2024.61" x2="3859.02" y2="2024.61" style="stroke:#EAF2F3;stroke-width:8.64"/>
	<line x1="390.80" y1="1560.17" x2="3859.02" y2="1560.17" style="stroke:#EAF2F3;stroke-width:8.64"/>
	<line x1="390.80" y1="1095.59" x2="3859.02" y2="1095.59" style="stroke:#EAF2F3;stroke-width:8.64"/>
	<line x1="390.80" y1="631.02" x2="3859.02" y2="631.02" style="stroke:#EAF2F3;stroke-width:8.64"/>
	<line x1="390.80" y1="166.45" x2="3859.02" y2="166.45" style="stroke:#EAF2F3;stroke-width:8.64"/>
	<rect x="561.95" y="2486.83" width="80.81" height="2.35" style="fill:#CAC27E"/>
	<rect x="566.27" y="2484.87" width="72.17" height="6.29" style="fill:none;stroke:#D7D29E;stroke-width:8.64"/>
	<rect x="642.76" y="2486.83" width="80.81" height="2.35" style="fill:#CAC27E"/>
	<rect x="647.08" y="2484.87" width="72.17" height="6.29" style="fill:none;stroke:#D7D29E;stroke-width:8.64"/>
	<rect x="723.57" y="2472.97" width="80.93" height="16.21" style="fill:#CAC27E"/>
	<rect x="727.89" y="2477.29" width="72.29" height="7.57" style="fill:none;stroke:#D7D29E;stroke-width:8.64"/>
	<rect x="804.50" y="2475.32" width="80.81" height="13.86" style="fill:#CAC27E"/>
	<rect x="808.82" y="2479.64" width="72.17" height="5.22" style="fill:none;stroke:#D7D29E;stroke-width:8.64"/>
	<rect x="966.12" y="2463.69" width="80.93" height="25.49" style="fill:#CAC27E"/>
	<rect x="970.44" y="2468.01" width="72.29" height="16.85" style="fill:none;stroke:#D7D29E;stroke-width:8.64"/>
	<rect x="1047.05" y="2438.07" width="80.81" height="51.11" style="fill:#CAC27E"/>
	<rect x="1051.37" y="2442.39" width="72.17" height="42.47" style="fill:none;stroke:#D7D29E;stroke-width:8.64"/>
	<rect x="1208.67" y="2400.95" width="80.81" height="88.24" style="fill:#CAC27E"/>
	<rect x="1212.99" y="2405.27" width="72.17" height="79.60" style="fill:none;stroke:#D7D29E;stroke-width:8.64"/>
	<rect x="1289.47" y="2352.19" width="80.93" height="137.00" style="fill:#CAC27E"/>
	<rect x="1293.79" y="2356.51" width="72.29" height="128.36" style="fill:none;stroke:#D7D29E;stroke-width:8.64"/>
	<rect x="1370.41" y="2270.88" width="80.81" height="218.30" style="fill:#CAC27E"/>
	<rect x="1374.73" y="2275.20" width="72.17" height="209.66" style="fill:none;stroke:#D7D29E;stroke-width:8.64"/>
	<rect x="1451.22" y="2131.54" width="80.81" height="357.65" style="fill:#CAC27E"/>
	<rect x="1455.54" y="2135.86" width="72.17" height="349.01" style="fill:none;stroke:#D7D29E;stroke-width:8.64"/>
	<rect x="1612.96" y="1917.81" width="80.81" height="571.37" style="fill:#CAC27E"/>
	<rect x="1617.28" y="1922.13" width="72.17" height="562.73" style="fill:none;stroke:#D7D29E;stroke-width:8.64"/>
	<rect x="1693.77" y="1762.26" width="80.81" height="726.93" style="fill:#CAC27E"/>
	<rect x="1698.09" y="1766.57" width="72.17" height="718.29" style="fill:none;stroke:#D7D29E;stroke-width:8.64"/>
	<rect x="1855.51" y="1492.72" width="80.81" height="996.47" style="fill:#CAC27E"/>
	<rect x="1859.83" y="1497.04" width="72.17" height="987.83" style="fill:none;stroke:#D7D29E;stroke-width:8.64"/>
	<rect x="1936.32" y="1121.09" width="80.81" height="1368.10" style="fill:#CAC27E"/>
	<rect x="1940.64" y="1125.41" width="72.17" height="1359.46" style="fill:none;stroke:#D7D29E;stroke-width:8.64"/>
	<rect x="2017.13" y="854.03" width="80.81" height="1635.16" style="fill:#CAC27E"/>
	<rect x="2021.44" y="858.35" width="72.17" height="1626.52" style="fill:none;stroke:#D7D29E;stroke-width:8.64"/>
	<rect x="2097.93" y="600.83" width="80.93" height="1888.36" style="fill:#CAC27E"/>
	<rect x="2102.25" y="605.14" width="72.29" height="1879.72" style="fill:none;stroke:#D7D29E;stroke-width:8.64"/>
	<rect x="2259.68" y="498.60" width="80.81" height="1990.58" style="fill:#CAC27E"/>
	<rect x="2263.99" y="502.92" width="72.17" height="1981.94" style="fill:none;stroke:#D7D29E;stroke-width:8.64"/>
	<rect x="2340.48" y="164.22" width="80.93" height="2324.96" style="fill:#CAC27E"/>
	<rect x="2344.80" y="168.54" width="72.29" height="2316.32" style="fill:none;stroke:#D7D29E;stroke-width:8.64"/>
	<rect x="2502.23" y="331.41" width="80.81" height="2157.77" style="fill:#CAC27E"/>
	<rect x="2506.54" y="335.73" width="72.17" height="2149.13" style="fill:none;stroke:#D7D29E;stroke-width:8.64"/>
	<rect x="2583.03" y="426.58" width="80.81" height="2062.61" style="fill:#CAC27E"/>
	<rect x="2587.35" y="430.90" width="72.17" height="2053.97" style="fill:none;stroke:#D7D29E;stroke-width:8.64"/>
	<rect x="2663.84" y="577.56" width="80.93" height="1911.63" style="fill:#CAC27E"/>
	<rect x="2668.16" y="581.88" width="72.29" height="1902.99" style="fill:none;stroke:#D7D29E;stroke-width:8.64"/>
	<rect x="2744.78" y="1046.83" width="80.81" height="1442.35" style="fill:#CAC27E"/>
	<rect x="2749.09" y="1051.15" width="72.17" height="1433.71" style="fill:none;stroke:#D7D29E;stroke-width:8.64"/>
	<rect x="2906.39" y="1311.54" width="80.93" height="1177.64" style="fill:#CAC27E"/>
	<rect x="2910.71" y="1315.86" width="72.29" height="1169.00" style="fill:none;stroke:#D7D29E;stroke-width:8.64"/>
	<rect x="2987.33" y="1708.79" width="80.81" height="780.39" style="fill:#CAC27E"/>
	<rect x="2991.64" y="1713.11" width="72.17" height="771.75" style="fill:none;stroke:#D7D29E;stroke-width:8.64"/>
	<rect x="3148.94" y="1948.01" width="80.81" height="541.18" style="fill:#CAC27E"/>
	<rect x="3153.26" y="1952.33" width="72.17" height="532.54" style="fill:none;stroke:#D7D29E;stroke-width:8.64"/>
	<rect x="3229.75" y="2143.17" width="80.93" height="346.02" style="fill:#CAC27E"/>
	<rect x="3234.07" y="2147.49" width="72.29" height="337.38" style="fill:none;stroke:#D7D29E;stroke-width:8.64"/>
	<rect x="3310.68" y="2277.81" width="80.81" height="211.37" style="fill:#CAC27E"/>
	<rect x="3315.00" y="2282.13" width="72.17" height="202.73" style="fill:none;stroke:#D7D29E;stroke-width:8.64"/>
	<rect x="3391.49" y="2396.25" width="80.81" height="92.94" style="fill:#CAC27E"/>
	<rect x="3395.81" y="2400.57" width="72.17" height="84.30" style="fill:none;stroke:#D7D29E;stroke-width:8.64"/>
	<rect x="3553.23" y="2442.78" width="80.81" height="46.41" style="fill:#CAC27E"/>
	<rect x="3557.55" y="2447.10" width="72.17" height="37.77" style="fill:none;stroke:#D7D29E;stroke-width:8.64"/>
	<rect x="3634.04" y="2463.69" width="80.81" height="25.49" style="fill:#CAC27E"/>
	<rect x="3638.36" y="2468.01" width="72.17" height="16.85" style="fill:none;stroke:#D7D29E;stroke-width:8.64"/>
	<rect x="3714.85" y="2472.97" width="80.81" height="16.21" style="fill:#CAC27E"/>
	<rect x="3719.17" y="2477.29" width="72.17" height="7.57" style="fill:none;stroke:#D7D29E;stroke-width:8.64"/>
	<line x1="390.80" y1="2489.19" x2="390.80" y2="100.86" style="stroke:#000000;stroke-width:5.76"/>
	<line x1="390.80" y1="2489.19" x2="350.83" y2="2489.19" style="stroke:#000000;stroke-width:5.76"/>
	<text x="300.72" y="2489.19" style="font-family:'Helvetica';font-size:99.99px;fill:#000000" transform="rotate(-90 300.72,2489.19)" text-anchor="middle">0</text>
	<line x1="390.80" y1="2024.61" x2="350.83" y2="2024.61" style="stroke:#000000;stroke-width:5.76"/>
	<text x="300.72" y="2024.61" style="font-family:'Helvetica';font-size:99.99px;fill:#000000" transform="rotate(-90 300.72,2024.61)" text-anchor="middle">.02</text>
	<line x1="390.80" y1="1560.17" x2="350.83" y2="1560.17" style="stroke:#000000;stroke-width:5.76"/>
	<text x="300.72" y="1560.17" style="font-family:'Helvetica';font-size:99.99px;fill:#000000" transform="rotate(-90 300.72,1560.17)" text-anchor="middle">.04</text>
	<line x1="390.80" y1="1095.59" x2="350.83" y2="1095.59" style="stroke:#000000;stroke-width:5.76"/>
	<text x="300.72" y="1095.59" style="font-family:'Helvetica';font-size:99.99px;fill:#000000" transform="rotate(-90 300.72,1095.59)" text-anchor="middle">.06</text>
	<line x1="390.80" y1="631.02" x2="350.83" y2="631.02" style="stroke:#000000;stroke-width:5.76"/>
	<text x="300.72" y="631.02" style="font-family:'Helvetica';font-size:99.99px;fill:#000000" transform="rotate(-90 300.72,631.02)" text-anchor="middle">.08</text>
	<line x1="390.80" y1="166.45" x2="350.83" y2="166.45" style="stroke:#000000;stroke-width:5.76"/>
	<text x="300.72" y="166.45" style="font-family:'Helvetica';font-size:99.99px;fill:#000000" transform="rotate(-90 300.72,166.45)" text-anchor="middle">.1</text>
	<text x="190.71" y="1294.96" style="font-family:'Helvetica';font-size:99.99px;fill:#000000" transform="rotate(-90 190.71,1294.96)" text-anchor="middle">Fraction</text>
	<line x1="390.80" y1="2489.19" x2="3859.02" y2="2489.19" style="stroke:#000000;stroke-width:5.76"/>
	<line x1="454.16" y1="2489.19" x2="454.16" y2="2529.16" style="stroke:#000000;stroke-width:5.76"/>
	<text x="454.16" y="2619.14" style="font-family:'Helvetica';font-size:99.99px;fill:#000000" text-anchor="middle">.6</text>
	<line x1="1532.03" y1="2489.19" x2="1532.03" y2="2529.16" style="stroke:#000000;stroke-width:5.76"/>
	<text x="1532.03" y="2619.14" style="font-family:'Helvetica';font-size:99.99px;fill:#000000" text-anchor="middle">.7</text>
	<line x1="2610.01" y1="2489.19" x2="2610.01" y2="2529.16" style="stroke:#000000;stroke-width:5.76"/>
	<text x="2610.01" y="2619.14" style="font-family:'Helvetica';font-size:99.99px;fill:#000000" text-anchor="middle">.8</text>
	<line x1="3687.87" y1="2489.19" x2="3687.87" y2="2529.16" style="stroke:#000000;stroke-width:5.76"/>
	<text x="3687.87" y="2619.14" style="font-family:'Helvetica';font-size:99.99px;fill:#000000" text-anchor="middle">.9</text>
	<text x="2124.91" y="2729.16" style="font-family:'Helvetica';font-size:99.99px;fill:#000000" text-anchor="middle">Y</text>
</svg>
